<?xml version="1.0" standalone="no"?>
<!DOCTYPE svg PUBLIC "-//W3C//DTD SVG 20010904//EN"
 "http://www.w3.org/TR/2001/REC-SVG-20010904/DTD/svg10.dtd">
<svg version="1.0" xmlns="http://www.w3.org/2000/svg"
 width="96.000000pt" height="96.000000pt" viewBox="0 0 96.000000 96.000000"
 preserveAspectRatio="xMidYMid meet">

<g transform="translate(0.000000,96.000000) scale(0.100000,-0.100000)"
fill="#000000" stroke="none">
<path d="M329 926 c-195 -68 -319 -242 -319 -445 0 -187 97 -344 263 -426 186
-91 396 -56 542 90 70 70 110 146 131 248 38 181 -51 384 -213 487 -113 72
-278 91 -404 46z m-29 -286 c0 -5 -9 -10 -20 -10 -18 0 -20 -7 -20 -55 l0 -55
65 0 65 0 0 55 c0 48 -2 55 -20 55 -11 0 -20 5 -20 10 0 6 30 10 70 10 40 0
70 -4 70 -10 0 -5 -9 -10 -20 -10 -19 0 -20 -7 -20 -130 0 -123 1 -130 20
-130 11 0 20 -4 20 -10 0 -6 -30 -10 -70 -10 -40 0 -70 4 -70 10 0 6 9 10 20
10 18 0 20 7 20 60 l0 60 -65 0 -65 0 0 -60 c0 -53 2 -60 20 -60 11 0 20 -4
20 -10 0 -6 -30 -10 -70 -10 -40 0 -70 4 -70 10 0 6 9 10 20 10 19 0 20 7 20
130 0 123 -1 130 -20 130 -11 0 -20 5 -20 10 0 6 30 10 70 10 40 0 70 -4 70
-10z m445 -15 c31 -30 31 -54 4 -89 l-21 -27 26 -20 c20 -16 26 -29 26 -60 0
-34 -5 -42 -32 -59 -27 -16 -51 -20 -130 -20 -59 0 -98 4 -98 10 0 6 9 10 20
10 19 0 20 7 20 130 0 107 -3 130 -14 130 -8 0 -18 5 -21 10 -4 6 30 10 95 10
94 0 103 -2 125 -25z"/>
<path d="M620 575 c0 -52 1 -55 26 -55 44 0 64 17 64 55 0 38 -20 55 -64 55
-25 0 -26 -3 -26 -55z"/>
<path d="M620 430 l0 -60 30 0 c32 0 80 38 80 62 0 33 -31 58 -71 58 l-39 0 0
-60z"/>
</g>
</svg>
